HIERARCHY
ROOT Hips
{
  OFFSET -331.093 83.8371 -317.828
  CHANNELS 6 Xposition Yposition Zposition Zrotation Xrotation Yrotation
  JOINT LeftUpLeg
  {
    OFFSET 8.64259 1.95398 -2.38835
    CHANNELS 3 Zrotation Xrotation Yrotation
    JOINT LeftLeg
    {
      OFFSET 43.7702 0 0
      CHANNELS 3 Zrotation Xrotation Yrotation
      JOINT LeftFoot
      {
        OFFSET 40.6238 0 0
        CHANNELS 3 Zrotation Xrotation Yrotation
        JOINT LeftToeBase
        {
          OFFSET 12.7242 0 0
          CHANNELS 3 Zrotation Xrotation Yrotation
          End Site
          {
            OFFSET 0 0 0
          }
        }
      }
    }
  }
  JOINT RightUpLeg
  {
    OFFSET -8.2249 1.95398 -2.59336
    CHANNELS 3 Zrotation Xrotation Yrotation
    JOINT RightLeg
    {
      OFFSET 43.5653 0 0
      CHANNELS 3 Zrotation Xrotation Yrotation
      JOINT RightFoot
      {
        OFFSET 40.6238 0 0
        CHANNELS 3 Zrotation Xrotation Yrotation
        JOINT RightToeBase
        {
          OFFSET 12.7242 0 0
          CHANNELS 3 Zrotation Xrotation Yrotation
          End Site
          {
            OFFSET 0 0 0
          }
        }
      }
    }
  }
  JOINT Spine
  {
    OFFSET 0.165834 0.87714 6.61349
    CHANNELS 3 Zrotation Xrotation Yrotation
    JOINT Spine1
    {
      OFFSET 7.38963 1.71661e-005 0
      CHANNELS 3 Zrotation Xrotation Yrotation
      JOINT Spine2
      {
        OFFSET 11.9445 1.14441e-005 0
        CHANNELS 3 Zrotation Xrotation Yrotation
        JOINT Spine3
        {
          OFFSET 14.7254 4.19617e-005 0
          CHANNELS 3 Zrotation Xrotation Yrotation
          JOINT Spine4
          {
            OFFSET 10.9679 0 0
            CHANNELS 3 Zrotation Xrotation Yrotation
            JOINT RightShoulder
            {
              OFFSET 2.46616 -1.6653 3.69651
              CHANNELS 3 Zrotation Xrotation Yrotation
              JOINT RightArm
              {
                OFFSET 13.0012 0 0
                CHANNELS 3 Zrotation Xrotation Yrotation
                JOINT RightForeArm
                {
                  OFFSET 28.7848 1.62311e-005 0
                  CHANNELS 3 Zrotation Xrotation Yrotation
                  JOINT RightHand
                  {
                    OFFSET 26.5688 1.62095e-005 0
                    CHANNELS 3 Zrotation Xrotation Yrotation
                    End Site
                    {
                      OFFSET 0 0 0
                    }
                  }
                }
              }
            }
            JOINT LeftShoulder
            {
              OFFSET 2.38034 -1.29275 -3.7523
              CHANNELS 3 Zrotation Xrotation Yrotation
              JOINT LeftArm
              {
                OFFSET 16.3182 6.07031e-005 0
                CHANNELS 3 Zrotation Xrotation Yrotation
                JOINT LeftForeArm
                {
                  OFFSET 27.0901 0 0
                  CHANNELS 3 Zrotation Xrotation Yrotation
                  JOINT LeftHand
                  {
                    OFFSET 24.5451 1.51738e-005 0
                    CHANNELS 3 Zrotation Xrotation Yrotation
                    End Site
                    {
                      OFFSET 0 0 0
                    }
                  }
                }
              }
            }
            JOINT Neck
            {
              OFFSET 5.0226 -0.0266342 0
              CHANNELS 3 Zrotation Xrotation Yrotation
              JOINT Head
              {
                OFFSET 6.69364 2.86102e-005 0
                CHANNELS 3 Zrotation Xrotation Yrotation
                End Site
                {
                  OFFSET 0 0 0
                }
              }
            }
          }
        }
      }
    }
  }
}
MOTION
Frames:	15
Frame Time:	0.0416667
-61.7592 99.1782 51.6309 -175.632 -88.5355 -175.658 -174.59 2.8131 91.6505 -8.68686 4.14481 -0.512644 62.2591 1.10669 1.21018 27.6746 -0.662306 0.75853 171.366 2.25738 89.3129 -10.9873 -6.39541 -1.93316 64.1722 -2.00165 -1.11172 29.0049 -0.365949 -3.0141 0.129039 6.50388 -90.066 13.8546 0.223682 -0.162236 2.18363 0.216331 -0.171925 -20.3516 0.26209 -0.0875051 -0.338991 0.262103 -0.087504 91.9559 -39.5016 -99.775 27.9106 -19.109 1.37321 26.1592 7.19189 -86.2446 -14.0506 -0.115101 -3.9567 -96.259 -48.6881 69.5529 -22.8384 11.5318 6.93916 -18.6308 -10.962 -82.7051 10.6573 0.352021 -0.496039 6.09839 0.612551 3.1717 -19.6717 0.199043 -1.33383 
-61.7906 99.1453 51.5684 -176.798 -88.4782 -176.722 -174.488 2.97397 91.8536 -8.93679 5.26311 -0.630095 62.3715 1.78173 2.45462 26.8909 -1.42737 -0.18817 171.474 2.16483 89.46 -10.9222 -6.41581 -1.97399 64.2502 -2.06613 -1.14552 28.6288 -0.379941 -3.27527 0.115889 6.50485 -90.0788 13.8655 0.191353 -0.183481 2.19452 0.183099 -0.191734 -20.3407 0.237651 -0.117489 -0.328064 0.23765 -0.117496 91.8235 -39.7112 -99.9521 27.9143 -18.8104 1.03412 25.1171 7.88673 -86.3206 -12.7765 -0.138261 -3.46532 -96.3216 -48.7483 69.4795 -22.7912 11.5544 7.16764 -18.0661 -10.7426 -83.0883 11.9026 0.489728 0.261096 4.11717 0.158968 4.28035 -17.0717 -0.284125 -2.36229 
-61.7583 99.169 51.5546 179.832 -88.5133 179.955 -174.581 3.37058 91.8505 -9.54346 5.63663 -0.543645 61.9793 1.30248 2.37793 27.9808 -0.519337 0.347941 171.46 2.05173 89.4896 -10.6119 -6.31094 -1.9369 64.0697 -2.0369 -1.12635 28.7947 -0.400012 -3.37915 0.119388 6.49495 -90.0768 13.8842 0.199242 -0.180649 2.21322 0.191098 -0.189245 -20.322 0.244322 -0.112414 -0.309366 0.244319 -0.112418 91.879 -39.7079 -99.8567 28.0821 -18.7228 1.16847 25.188 8.0326 -86.6905 -12.6827 -0.16284 -3.23173 -96.3866 -48.6749 69.3595 -22.8099 11.4377 7.13362 -18.4393 -10.8682 -82.8503 10.9603 0.374258 -0.391665 4.1687 0.0953356 3.11082 -16.9349 -0.339081 -0.892714 
-61.7042 99.1765 51.6095 -177.456 -88.3754 -177.398 -174.571 3.00597 91.7572 -9.21417 5.47908 -0.560442 62.0374 1.41398 2.3886 27.4613 -0.8076 0.829448 171.326 1.98548 89.3373 -10.7832 -6.54737 -1.91001 64.1229 -2.0398 -1.12965 28.8883 -0.390851 -3.26608 0.135509 6.50827 -90.0743 13.8576 0.232459 -0.179844 2.18663 0.224316 -0.189907 -20.3487 0.275762 -0.101673 -0.336008 0.275757 -0.101675 91.9162 -39.6783 -99.7992 28.0009 -18.7511 1.19075 25.6409 7.74921 -86.5267 -13.3027 -0.125915 -3.68637 -96.4556 -48.7296 69.2756 -22.7713 11.5249 6.99691 -18.445 -10.8766 -82.8753 11.4705 0.426406 -0.115156 4.39224 0.0747619 3.2878 -17.1182 -0.358043 -1.17558 
-61.7345 99.1189 51.5783 179.019 -88.673 179.104 -174.458 3.22143 91.7987 -9.12653 5.36105 -0.710744 62.9045 2.21491 2.53535 26.0598 -1.97619 0.138752 171.512 2.2939 89.4798 -10.8622 -6.227 -1.9793 64.2042 -2.05795 -1.14068 28.9023 -0.403507 -3.36676 0.123219 6.4708 -90.0765 13.9324 0.206966 -0.181126 2.26149 0.198788 -0.190063 -20.2737 0.251828 -0.110548 -0.261099 0.251825 -0.110557 91.8998 -39.8145 -99.7944 27.7203 -18.8106 1.11696 25.7344 7.39938 -86.2029 -13.6914 -0.118224 -3.84831 -96.4181 -48.6625 69.3083 -22.8463 11.5782 7.0126 -18.4277 -10.844 -82.9477 10.8227 0.361883 -0.459825 4.27975 0.0287668 3.30303 -17.0565 -0.414736 -1.08809 
-61.7084 99.1199 51.6307 176.891 -88.6181 176.931 -174.406 3.02397 91.7723 -8.84949 5.40452 -0.783865 62.5626 2.16352 2.73876 26.7459 -1.53167 -0.177215 171.356 2.34961 89.3631 -11.0915 -6.30416 -1.89889 64.4085 -2.12008 -1.17714 28.7187 -0.372628 -3.17836 0.111922 6.47909 -90.0705 13.9159 0.187522 -0.166395 2.24491 0.180019 -0.174504 -20.2903 0.228855 -0.102351 -0.277659 0.228858 -0.102354 91.8717 -39.9038 -99.8191 27.7111 -18.6428 1.14045 25.0388 7.08065 -86.2011 -13.4131 -0.113773 -3.80935 -96.4428 -48.7332 69.2959 -22.7244 11.3553 6.86754 -18.4799 -10.8031 -82.8979 11.2148 0.328651 -0.85234 4.42337 0.0882303 3.34615 -17.1756 -0.36524 -1.10341 
-61.7508 99.1093 51.7156 -166.487 -88.4882 -166.785 -174.567 2.497 91.4309 -8.28771 4.82378 -0.702343 62.5247 2.14794 2.53139 26.5498 -1.59581 0.251272 171.353 2.54449 89.07 -11.6254 -6.77098 -2.08008 64.6413 -2.14359 -1.19418 28.8529 -0.384382 -3.22424 0.153519 6.4926 -90.0467 13.8889 0.281598 -0.131286 2.21793 0.275548 -0.143565 -20.3174 0.30803 -0.0405845 -0.304802 0.308036 -0.0405852 91.9555 -39.6565 -99.7366 27.862 -18.4368 1.05817 24.4373 6.79479 -86.1506 -12.4154 -0.11685 -3.54078 -96.5319 -48.8461 69.2007 -22.6357 11.4075 6.78507 -19.0667 -10.9127 -83.295 12.1717 0.420222 -0.376179 4.20815 0.0552123 3.70515 -16.811 -0.416786 -1.42651 
-61.7794 99.1125 51.7661 -160.511 -88.575 -160.713 -174.524 2.61216 91.5351 -8.25491 5.01504 -0.734189 62.134 2.07098 2.99246 27.2955 -1.22454 -0.659188 171.445 2.62291 89.234 -11.6158 -6.77233 -2.08092 64.5656 -2.11429 -1.17771 28.7736 -0.402051 -3.40589 0.166048 6.48129 -90.0506 13.9115 0.304522 -0.142226 2.2406 0.297967 -0.155492 -20.2948 0.333181 -0.044126 -0.282183 0.333184 -0.0441283 91.9939 -39.5827 -99.6882 27.8172 -18.4512 0.829703 24.1572 6.57677 -86.1916 -13.3611 -0.151826 -3.49296 -96.4318 -48.7152 69.3061 -22.4751 11.9847 6.59483 -18.7837 -10.8066 -83.6823 11.8073 0.394971 -0.472988 4.27192 0.0645898 3.69557 -16.8457 -0.4045 -1.44899 
-61.6772 99.1602 51.8782 -176.1 -88.4911 -176.063 -174.455 2.78286 91.7339 -9.04657 5.04574 -0.674378 62.9718 1.99696 2.0504 26.3376 -1.6346 0.885392 171.352 1.96553 89.3102 -10.8539 -6.58297 -1.96087 64.2932 -2.10233 -1.16421 29.0121 -0.413084 -3.40324 0.142725 6.51346 -90.0832 13.8472 0.242447 -0.199034 2.17621 0.233461 -0.209518 -20.3591 0.291064 -0.116966 -0.346426 0.291059 -0.116971 92.1639 -39.3019 -99.4626 27.6273 -18.5264 0.590086 24.076 6.65481 -86.441 -14.134 -0.126243 -3.86361 -96.5832 -48.8472 69.1251 -21.9021 12.4001 6.30605 -18.4337 -10.6284 -84.3869 11.7744 0.409408 -0.342428 4.30691 0.177504 3.59695 -16.6965 -0.29453 -1.31765 
-62.0526 99.1236 51.7743 -133.7 -89.2171 -134.691 -174.755 3.14627 90.9687 -7.78167 4.44881 -0.877309 61.6739 1.43315 1.99019 27.0098 -1.13928 0.855386 171.601 3.84235 88.8875 -12.2682 -6.64929 -2.39925 64.9007 -2.16035 -1.20975 28.7898 -0.369152 -3.12161 0.179838 6.43535 -89.9588 14.0032 0.376583 0.0315618 2.33228 0.377605 0.0149474 -20.2033 0.349678 0.143282 -0.190635 0.34969 0.143283 92.3291 -38.8912 -99.2756 27.5146 -17.9756 0.0189967 23.6751 5.4002 -87.7009 -14.5567 -0.207631 -3.35747 -96.2976 -48.6256 69.475 -20.9367 12.8441 5.77442 -19.3598 -10.3128 -86.9036 13.0552 0.587502 0.637555 4.54703 0.174077 3.54941 -16.7407 -0.309701 -1.21805 
-62.011 99.0964 51.7015 100.044 -89.1011 99.0463 -174.89 3.75902 90.8617 -7.62176 6.13756 -0.970084 61.1608 1.7228 2.85545 27.7472 -0.755427 0.0318829 171.396 4.23967 88.8366 -12.3786 -5.43656 -2.13268 64.9602 -2.11224 -1.18935 28.9026 -0.375819 -3.13285 0.0374691 6.4054 -89.9548 14.0638 0.0964405 0.0775137 2.39285 0.099762 0.0731903 -20.1422 0.0686785 0.102913 -0.129577 0.0686897 0.10292 92.5362 -38.5703 -98.9899 26.3339 -16.8545 -0.774253 22.8982 4.06538 -90.7275 -14.0572 -0.280081 -2.57867 -95.9979 -48.2872 69.811 -19.2368 13.218 4.85652 -18.4817 -9.45755 -90.6079 12.0858 0.598271 1.05836 4.51972 0.0613372 3.57705 -16.4339 -0.411737 -1.34821 
-61.7593 99.1248 51.9339 130.06 -88.6821 130.345 -174.351 3.94508 92.1131 -9.58274 6.57294 -0.855552 62.5489 1.96338 2.58319 27.3443 -1.01003 0.247333 171.563 2.19396 89.7644 -10.4308 -5.14757 -1.84263 64.1471 -2.104 -1.16226 29.1717 -0.427851 -3.46218 0.0324227 6.47475 -90.0991 13.9243 0.0159152 -0.201009 2.25333 0.0070605 -0.201517 -20.2817 0.0755984 -0.186923 -0.269061 0.0755912 -0.186932 92.6865 -38.1331 -98.8311 24.7522 -14.7727 -2.40137 20.2329 2.71013 -94.6553 -10.5793 -0.317361 -1.05897 -95.1814 -47.774 70.8686 -17.2345 12.4773 3.20449 -15.7449 -8.07351 -95.5031 12.3145 0.822946 2.73772 4.62941 0.266231 3.75814 -16.5 -0.216452 -1.56554 
-61.5301 99.1388 51.9589 132.308 -87.6501 132.126 -174.743 2.8837 91.4066 -8.97195 6.72886 -0.609407 62.3312 2.1441 2.75833 27.2688 -1.14164 -0.138914 170.907 1.99123 88.9606 -11.4118 -5.03795 -1.70807 64.563 -2.14155 -1.1934 29.2196 -0.380045 -3.05197 -0.056925 6.55477 -90.0571 13.7643 -0.140637 -0.0958945 2.09335 -0.144712 -0.0896109 -20.4418 -0.105313 -0.13372 -0.42917 -0.105317 -0.133728 93.0589 -37.388 -98.3476 22.9027 -12.0715 -4.47905 19.6338 1.50365 -98.8504 -6.89885 -0.12034 -1.21074 -94.5388 -47.3901 71.7158 -15.0861 10.7186 0.988321 -12.3614 -6.78921 -100.885 15.7231 1.39889 4.96296 4.759 0.331125 3.88145 -16.186 -0.151235 -1.82044 
-61.5884 99.1231 52.0449 134.2 -88.2285 134.294 -174.513 3.41864 91.7649 -9.49912 6.63064 -0.750627 62.675 2.14457 2.63454 27.201 -1.03406 0.66387 171.359 2.01713 89.4045 -10.8724 -5.04876 -1.89167 64.4204 -2.18873 -1.21206 29.1654 -0.394711 -3.19218 0.0159237 6.50341 -90.0944 13.867 -0.0144261 -0.187393 2.19605 -0.0226577 -0.186583 -20.339 0.0425526 -0.18307 -0.32635 0.0425581 -0.183067 93.647 -36.4638 -97.5001 21.6475 -7.60083 -7.34043 18.0567 -0.756476 -103.07 -4.48686 -0.0661565 -0.0211387 -94.4356 -47.147 71.8 -12.0979 6.96724 -1.16623 -7.92599 -5.66551 -106.496 14.375 1.39784 5.75301 4.86911 0.305096 3.44573 -15.6643 -0.177402 -1.25668 
-61.5135 99.1421 52.1064 132.723 -88.3471 132.672 -174.634 3.53304 91.5688 -9.51913 6.78073 -0.735542 62.0945 1.83557 2.9435 27.9177 -0.550421 0.420604 171.23 2.19593 89.2102 -10.9818 -5.1295 -1.86049 64.4487 -2.19381 -1.2156 29.1379 -0.373533 -3.02839 0.0364801 6.48029 -90.0964 13.9133 0.0253098 -0.196596 2.24237 0.016636 -0.19753 -20.2927 0.0832271 -0.179908 -0.280036 0.0832281 -0.179904 94.1008 -35.7535 -96.8313 20.8001 -0.590378 -10.5822 19.8172 -3.31424 -105.91 -0.103949 0.192239 -0.278523 -93.8441 -46.6228 72.5394 -9.07353 2.49147 -4.38944 -5.36253 -4.71616 -110.856 11.2967 1.3326 7.4427 5.09085 -0.0443074 3.65298 -15.1769 -0.54511 -1.50003 
